<svg width="254" height="247" viewBox="0 0 254 247" fill="none" xmlns="http://www.w3.org/2000/svg">
<path d="M83.0615 36.5C83.0616 22 86.8615 13 110.062 13C133.262 13 178.395 13 198.061 13M198.061 13L240.061 55M198.061 13V55H240.061M240.061 55V217.5C240.728 222.5 237.661 232.7 220.061 233.5C202.461 234.3 132.061 233.833 99.0614 233.5C93.7281 233.5 83.0615 230.3 83.0615 217.5C83.0615 204.7 83.0615 154.833 83.0615 131.5M105.561 207H116.561M137.561 207H148.561M169.561 207H180.561M201.061 207H212.061" stroke="black" stroke-width="26"/>
<rect y="48" width="165" height="75" rx="13" fill="black"/>
<path d="M50.5568 81.875H45.5795C45.4886 81.2311 45.303 80.6591 45.0227 80.1591C44.7424 79.6515 44.3826 79.2197 43.9432 78.8636C43.5038 78.5076 42.9962 78.2348 42.4205 78.0455C41.8523 77.8561 41.2348 77.7614 40.5682 77.7614C39.3636 77.7614 38.3144 78.0606 37.4205 78.6591C36.5265 79.25 35.8333 80.1136 35.3409 81.25C34.8485 82.3788 34.6023 83.75 34.6023 85.3636C34.6023 87.0227 34.8485 88.4167 35.3409 89.5455C35.8409 90.6742 36.5379 91.5265 37.4318 92.1023C38.3258 92.678 39.3598 92.9659 40.5341 92.9659C41.1932 92.9659 41.803 92.8788 42.3636 92.7045C42.9318 92.5303 43.4356 92.2765 43.875 91.9432C44.3144 91.6023 44.678 91.1894 44.9659 90.7045C45.2614 90.2197 45.4659 89.6667 45.5795 89.0455L50.5568 89.0682C50.428 90.1364 50.1061 91.1667 49.5909 92.1591C49.0833 93.1439 48.3977 94.0265 47.5341 94.8068C46.678 95.5795 45.6553 96.1932 44.4659 96.6477C43.2841 97.0947 41.947 97.3182 40.4545 97.3182C38.3788 97.3182 36.5227 96.8485 34.8864 95.9091C33.2576 94.9697 31.9697 93.6098 31.0227 91.8295C30.0833 90.0492 29.6136 87.8939 29.6136 85.3636C29.6136 82.8258 30.0909 80.6667 31.0455 78.8864C32 77.1061 33.2955 75.75 34.9318 74.8182C36.5682 73.8788 38.4091 73.4091 40.4545 73.4091C41.803 73.4091 43.053 73.5985 44.2045 73.9773C45.3636 74.3561 46.3902 74.9091 47.2841 75.6364C48.178 76.3561 48.9053 77.2386 49.4659 78.2841C50.0341 79.3295 50.3977 80.5265 50.5568 81.875ZM54.0852 97V73.7273H59.0057V92.9432H68.983V97H54.0852ZM76.8466 97H71.5739L79.608 73.7273H85.9489L93.9716 97H88.6989L82.8693 79.0455H82.6875L76.8466 97ZM76.517 87.8523H88.9716V91.6932H76.517V87.8523ZM108.866 80.4205C108.776 79.5038 108.385 78.7917 107.696 78.2841C107.007 77.7765 106.071 77.5227 104.889 77.5227C104.086 77.5227 103.408 77.6364 102.855 77.8636C102.302 78.0833 101.878 78.3902 101.582 78.7841C101.295 79.178 101.151 79.625 101.151 80.125C101.135 80.5417 101.223 80.9053 101.412 81.2159C101.609 81.5265 101.878 81.7955 102.219 82.0227C102.56 82.2424 102.954 82.4356 103.401 82.6023C103.848 82.7614 104.325 82.8977 104.832 83.0114L106.923 83.5114C107.938 83.7386 108.87 84.0417 109.719 84.4205C110.567 84.7992 111.302 85.2652 111.923 85.8182C112.545 86.3712 113.026 87.0227 113.366 87.7727C113.715 88.5227 113.893 89.3826 113.901 90.3523C113.893 91.7765 113.529 93.0114 112.81 94.0568C112.098 95.0947 111.067 95.9015 109.719 96.4773C108.378 97.0455 106.76 97.3295 104.866 97.3295C102.988 97.3295 101.351 97.0417 99.9574 96.4659C98.571 95.8902 97.4877 95.0379 96.7074 93.9091C95.9347 92.7727 95.5294 91.3674 95.4915 89.6932H100.253C100.306 90.4735 100.529 91.125 100.923 91.6477C101.325 92.1629 101.859 92.553 102.526 92.8182C103.2 93.0758 103.961 93.2045 104.81 93.2045C105.643 93.2045 106.366 93.0833 106.98 92.8409C107.601 92.5985 108.082 92.2614 108.423 91.8295C108.764 91.3977 108.935 90.9015 108.935 90.3409C108.935 89.8182 108.779 89.3788 108.469 89.0227C108.166 88.6667 107.719 88.3636 107.128 88.1136C106.545 87.8636 105.829 87.6364 104.98 87.4318L102.446 86.7955C100.484 86.3182 98.9347 85.572 97.7983 84.5568C96.6619 83.5417 96.0975 82.1742 96.1051 80.4545C96.0975 79.0455 96.4725 77.8144 97.2301 76.7614C97.9953 75.7083 99.0445 74.8864 100.378 74.2955C101.711 73.7045 103.226 73.4091 104.923 73.4091C106.651 73.4091 108.158 73.7045 109.446 74.2955C110.741 74.8864 111.749 75.7083 112.469 76.7614C113.188 77.8144 113.56 79.0341 113.582 80.4205H108.866ZM129.835 80.4205C129.744 79.5038 129.354 78.7917 128.665 78.2841C127.975 77.7765 127.04 77.5227 125.858 77.5227C125.055 77.5227 124.377 77.6364 123.824 77.8636C123.271 78.0833 122.847 78.3902 122.551 78.7841C122.263 79.178 122.119 79.625 122.119 80.125C122.104 80.5417 122.191 80.9053 122.381 81.2159C122.578 81.5265 122.847 81.7955 123.188 82.0227C123.528 82.2424 123.922 82.4356 124.369 82.6023C124.816 82.7614 125.294 82.8977 125.801 83.0114L127.892 83.5114C128.907 83.7386 129.839 84.0417 130.688 84.4205C131.536 84.7992 132.271 85.2652 132.892 85.8182C133.513 86.3712 133.994 87.0227 134.335 87.7727C134.684 88.5227 134.862 89.3826 134.869 90.3523C134.862 91.7765 134.498 93.0114 133.778 94.0568C133.066 95.0947 132.036 95.9015 130.688 96.4773C129.347 97.0455 127.729 97.3295 125.835 97.3295C123.956 97.3295 122.32 97.0417 120.926 96.4659C119.54 95.8902 118.456 95.0379 117.676 93.9091C116.903 92.7727 116.498 91.3674 116.46 89.6932H121.222C121.275 90.4735 121.498 91.125 121.892 91.6477C122.294 92.1629 122.828 92.553 123.494 92.8182C124.169 93.0758 124.93 93.2045 125.778 93.2045C126.612 93.2045 127.335 93.0833 127.949 92.8409C128.57 92.5985 129.051 92.2614 129.392 91.8295C129.733 91.3977 129.903 90.9015 129.903 90.3409C129.903 89.8182 129.748 89.3788 129.438 89.0227C129.134 88.6667 128.688 88.3636 128.097 88.1136C127.513 87.8636 126.797 87.6364 125.949 87.4318L123.415 86.7955C121.453 86.3182 119.903 85.572 118.767 84.5568C117.631 83.5417 117.066 82.1742 117.074 80.4545C117.066 79.0455 117.441 77.8144 118.199 76.7614C118.964 75.7083 120.013 74.8864 121.347 74.2955C122.68 73.7045 124.195 73.4091 125.892 73.4091C127.619 73.4091 129.127 73.7045 130.415 74.2955C131.71 74.8864 132.718 75.7083 133.438 76.7614C134.157 77.8144 134.528 79.0341 134.551 80.4205H129.835Z" fill="white"/>
</svg>
