<svg width="286" height="247" viewBox="0 0 286 247" fill="none" xmlns="http://www.w3.org/2000/svg">
<path d="M115.062 36.5C115.062 22 118.862 13 142.062 13C165.262 13 210.395 13 230.061 13M230.061 13L272.061 55M230.061 13V55H272.061M272.061 55V217.5C272.728 222.5 269.661 232.7 252.061 233.5C234.461 234.3 164.061 233.833 131.061 233.5C125.728 233.5 115.062 230.3 115.062 217.5C115.062 204.7 115.062 154.833 115.062 131.5M137.561 207H148.561M169.561 207H180.561M201.561 207H212.561M233.061 207H244.061" stroke="black" stroke-width="26"/>
<rect y="48" width="210" height="75" rx="13" fill="black"/>
<path d="M45.5568 81.875H40.5795C40.4886 81.2311 40.303 80.6591 40.0227 80.1591C39.7424 79.6515 39.3826 79.2197 38.9432 78.8636C38.5038 78.5076 37.9962 78.2348 37.4205 78.0455C36.8523 77.8561 36.2348 77.7614 35.5682 77.7614C34.3636 77.7614 33.3144 78.0606 32.4205 78.6591C31.5265 79.25 30.8333 80.1136 30.3409 81.25C29.8485 82.3788 29.6023 83.75 29.6023 85.3636C29.6023 87.0227 29.8485 88.4167 30.3409 89.5455C30.8409 90.6742 31.5379 91.5265 32.4318 92.1023C33.3258 92.678 34.3598 92.9659 35.5341 92.9659C36.1932 92.9659 36.803 92.8788 37.3636 92.7045C37.9318 92.5303 38.4356 92.2765 38.875 91.9432C39.3144 91.6023 39.678 91.1894 39.9659 90.7045C40.2614 90.2197 40.4659 89.6667 40.5795 89.0455L45.5568 89.0682C45.428 90.1364 45.1061 91.1667 44.5909 92.1591C44.0833 93.1439 43.3977 94.0265 42.5341 94.8068C41.678 95.5795 40.6553 96.1932 39.4659 96.6477C38.2841 97.0947 36.947 97.3182 35.4545 97.3182C33.3788 97.3182 31.5227 96.8485 29.8864 95.9091C28.2576 94.9697 26.9697 93.6098 26.0227 91.8295C25.0833 90.0492 24.6136 87.8939 24.6136 85.3636C24.6136 82.8258 25.0909 80.6667 26.0455 78.8864C27 77.1061 28.2955 75.75 29.9318 74.8182C31.5682 73.8788 33.4091 73.4091 35.4545 73.4091C36.803 73.4091 38.053 73.5985 39.2045 73.9773C40.3636 74.3561 41.3902 74.9091 42.2841 75.6364C43.178 76.3561 43.9053 77.2386 44.4659 78.2841C45.0341 79.3295 45.3977 80.5265 45.5568 81.875ZM70.4716 85.3636C70.4716 87.9015 69.9905 90.0606 69.0284 91.8409C68.0739 93.6212 66.7708 94.9811 65.1193 95.9205C63.4754 96.8523 61.6269 97.3182 59.5739 97.3182C57.5057 97.3182 55.6496 96.8485 54.0057 95.9091C52.3617 94.9697 51.0625 93.6098 50.108 91.8295C49.1534 90.0492 48.6761 87.8939 48.6761 85.3636C48.6761 82.8258 49.1534 80.6667 50.108 78.8864C51.0625 77.1061 52.3617 75.75 54.0057 74.8182C55.6496 73.8788 57.5057 73.4091 59.5739 73.4091C61.6269 73.4091 63.4754 73.8788 65.1193 74.8182C66.7708 75.75 68.0739 77.1061 69.0284 78.8864C69.9905 80.6667 70.4716 82.8258 70.4716 85.3636ZM65.483 85.3636C65.483 83.7197 65.2367 82.3333 64.7443 81.2045C64.2595 80.0758 63.5739 79.2197 62.6875 78.6364C61.8011 78.053 60.7633 77.7614 59.5739 77.7614C58.3845 77.7614 57.3466 78.053 56.4602 78.6364C55.5739 79.2197 54.8845 80.0758 54.392 81.2045C53.9072 82.3333 53.6648 83.7197 53.6648 85.3636C53.6648 87.0076 53.9072 88.3939 54.392 89.5227C54.8845 90.6515 55.5739 91.5076 56.4602 92.0909C57.3466 92.6742 58.3845 92.9659 59.5739 92.9659C60.7633 92.9659 61.8011 92.6742 62.6875 92.0909C63.5739 91.5076 64.2595 90.6515 64.7443 89.5227C65.2367 88.3939 65.483 87.0076 65.483 85.3636ZM74.1165 73.7273H80.1847L86.5938 89.3636H86.8665L93.2756 73.7273H99.3438V97H94.571V81.8523H94.3778L88.3551 96.8864H85.1051L79.0824 81.7955H78.8892V97H74.1165V73.7273ZM103.398 73.7273H109.466L115.875 89.3636H116.148L122.557 73.7273H128.625V97H123.852V81.8523H123.659L117.636 96.8864H114.386L108.364 81.7955H108.17V97H103.398V73.7273ZM132.679 97V73.7273H148.361V77.7841H137.599V83.3295H147.554V87.3864H137.599V92.9432H148.406V97H132.679ZM171.739 73.7273V97H167.489L157.364 82.3523H157.193V97H152.273V73.7273H156.591L166.636 88.3636H166.841V73.7273H171.739ZM174.918 77.7841V73.7273H194.031V77.7841H186.906V97H182.043V77.7841H174.918Z" fill="white"/>
</svg>
