<svg width="278" height="247" viewBox="0 0 278 247" fill="none" xmlns="http://www.w3.org/2000/svg">
<path d="M107.062 36.5C107.062 22 110.862 13 134.062 13C157.262 13 202.395 13 222.061 13M222.061 13L264.061 55M222.061 13V55H264.061M264.061 55V217.5C264.728 222.5 261.661 232.7 244.061 233.5C226.461 234.3 156.061 233.833 123.061 233.5C117.728 233.5 107.062 230.3 107.062 217.5C107.062 204.7 107.062 154.833 107.062 131.5M129.561 207H140.561M161.561 207H172.561M193.561 207H204.561M225.061 207H236.061" stroke="black" stroke-width="26"/>
<rect y="48" width="202" height="75" rx="13" fill="black"/>
<path d="M35.2614 97L28.6023 73.7273H33.9773L37.8295 89.8977H38.0227L42.2727 73.7273H46.875L51.1136 89.9318H51.3182L55.1705 73.7273H60.5455L53.8864 97H49.0909L44.6591 81.7841H44.4773L40.0568 97H35.2614ZM64.8466 97H59.5739L67.608 73.7273H73.9489L81.9716 97H76.6989L70.8693 79.0455H70.6875L64.8466 97ZM64.517 87.8523H76.9716V91.6932H64.517V87.8523ZM84.7727 97V73.7273H93.9545C95.7121 73.7273 97.2121 74.0417 98.4545 74.6705C99.7045 75.2917 100.655 76.1742 101.307 77.3182C101.966 78.4545 102.295 79.7917 102.295 81.3295C102.295 82.875 101.962 84.2045 101.295 85.3182C100.629 86.4242 99.6629 87.2727 98.3977 87.8636C97.1402 88.4545 95.6174 88.75 93.8295 88.75H87.6818V84.7955H93.0341C93.9735 84.7955 94.7538 84.6667 95.375 84.4091C95.9962 84.1515 96.4583 83.7652 96.7614 83.25C97.072 82.7348 97.2273 82.0947 97.2273 81.3295C97.2273 80.5568 97.072 79.9053 96.7614 79.375C96.4583 78.8447 95.9924 78.4432 95.3636 78.1705C94.7424 77.8902 93.9583 77.75 93.0114 77.75H89.6932V97H84.7727ZM97.3409 86.4091L103.125 97H97.6932L92.0341 86.4091H97.3409ZM125.239 73.7273V97H120.989L110.864 82.3523H110.693V97H105.773V73.7273H110.091L120.136 88.3636H120.341V73.7273H125.239ZM134.224 73.7273V97H129.304V73.7273H134.224ZM157.739 73.7273V97H153.489L143.364 82.3523H143.193V97H138.273V73.7273H142.591L152.636 88.3636H152.841V73.7273H157.739ZM177.236 81.25C177.077 80.697 176.853 80.2083 176.565 79.7841C176.277 79.3523 175.925 78.9886 175.509 78.6932C175.099 78.3902 174.63 78.1591 174.099 78C173.577 77.8409 172.997 77.7614 172.361 77.7614C171.171 77.7614 170.126 78.0568 169.224 78.6477C168.33 79.2386 167.634 80.0985 167.134 81.2273C166.634 82.3485 166.384 83.7197 166.384 85.3409C166.384 86.9621 166.63 88.3409 167.122 89.4773C167.615 90.6136 168.312 91.4811 169.213 92.0795C170.115 92.6705 171.179 92.9659 172.406 92.9659C173.52 92.9659 174.471 92.7689 175.259 92.375C176.054 91.9735 176.66 91.4091 177.077 90.6818C177.501 89.9545 177.713 89.0947 177.713 88.1023L178.713 88.25H172.713V84.5455H182.452V87.4773C182.452 89.5227 182.02 91.2803 181.156 92.75C180.293 94.2121 179.103 95.3409 177.588 96.1364C176.073 96.9242 174.338 97.3182 172.384 97.3182C170.202 97.3182 168.285 96.8371 166.634 95.875C164.982 94.9053 163.694 93.5303 162.77 91.75C161.853 89.9621 161.395 87.8409 161.395 85.3864C161.395 83.5 161.668 81.8182 162.213 80.3409C162.766 78.8561 163.539 77.5985 164.531 76.5682C165.524 75.5379 166.679 74.7538 167.997 74.2159C169.315 73.678 170.743 73.4091 172.281 73.4091C173.599 73.4091 174.827 73.6023 175.963 73.9886C177.099 74.3674 178.107 74.9053 178.986 75.6023C179.872 76.2992 180.596 77.1288 181.156 78.0909C181.717 79.0455 182.077 80.0985 182.236 81.25H177.236Z" fill="white"/>
</svg>
