<svg width="239" height="247" viewBox="0 0 239 247" fill="none" xmlns="http://www.w3.org/2000/svg">
<path d="M68.0615 36.5C68.0616 22 71.8615 13 95.0615 13C118.262 13 163.395 13 183.061 13M183.061 13L225.061 55M183.061 13V55H225.061M225.061 55V217.5C225.728 222.5 222.661 232.7 205.061 233.5C187.461 234.3 117.061 233.833 84.0614 233.5C78.7281 233.5 68.0615 230.3 68.0615 217.5C68.0615 204.7 68.0615 154.833 68.0615 131.5M90.5614 207H101.561M122.561 207H133.561M154.561 207H165.561M186.061 207H197.061" stroke="black" stroke-width="26"/>
<rect y="48" width="137" height="75" rx="13" fill="black"/>
<path d="M41.5568 81.875H36.5795C36.4886 81.2311 36.303 80.6591 36.0227 80.1591C35.7424 79.6515 35.3826 79.2197 34.9432 78.8636C34.5038 78.5076 33.9962 78.2348 33.4205 78.0455C32.8523 77.8561 32.2348 77.7614 31.5682 77.7614C30.3636 77.7614 29.3144 78.0606 28.4205 78.6591C27.5265 79.25 26.8333 80.1136 26.3409 81.25C25.8485 82.3788 25.6023 83.75 25.6023 85.3636C25.6023 87.0227 25.8485 88.4167 26.3409 89.5455C26.8409 90.6742 27.5379 91.5265 28.4318 92.1023C29.3258 92.678 30.3598 92.9659 31.5341 92.9659C32.1932 92.9659 32.803 92.8788 33.3636 92.7045C33.9318 92.5303 34.4356 92.2765 34.875 91.9432C35.3144 91.6023 35.678 91.1894 35.9659 90.7045C36.2614 90.2197 36.4659 89.6667 36.5795 89.0455L41.5568 89.0682C41.428 90.1364 41.1061 91.1667 40.5909 92.1591C40.0833 93.1439 39.3977 94.0265 38.5341 94.8068C37.678 95.5795 36.6553 96.1932 35.4659 96.6477C34.2841 97.0947 32.947 97.3182 31.4545 97.3182C29.3788 97.3182 27.5227 96.8485 25.8864 95.9091C24.2576 94.9697 22.9697 93.6098 22.0227 91.8295C21.0833 90.0492 20.6136 87.8939 20.6136 85.3636C20.6136 82.8258 21.0909 80.6667 22.0455 78.8864C23 77.1061 24.2955 75.75 25.9318 74.8182C27.5682 73.8788 29.4091 73.4091 31.4545 73.4091C32.803 73.4091 34.053 73.5985 35.2045 73.9773C36.3636 74.3561 37.3902 74.9091 38.2841 75.6364C39.178 76.3561 39.9053 77.2386 40.4659 78.2841C41.0341 79.3295 41.3977 80.5265 41.5568 81.875ZM66.4716 85.3636C66.4716 87.9015 65.9905 90.0606 65.0284 91.8409C64.0739 93.6212 62.7708 94.9811 61.1193 95.9205C59.4754 96.8523 57.6269 97.3182 55.5739 97.3182C53.5057 97.3182 51.6496 96.8485 50.0057 95.9091C48.3617 94.9697 47.0625 93.6098 46.108 91.8295C45.1534 90.0492 44.6761 87.8939 44.6761 85.3636C44.6761 82.8258 45.1534 80.6667 46.108 78.8864C47.0625 77.1061 48.3617 75.75 50.0057 74.8182C51.6496 73.8788 53.5057 73.4091 55.5739 73.4091C57.6269 73.4091 59.4754 73.8788 61.1193 74.8182C62.7708 75.75 64.0739 77.1061 65.0284 78.8864C65.9905 80.6667 66.4716 82.8258 66.4716 85.3636ZM61.483 85.3636C61.483 83.7197 61.2367 82.3333 60.7443 81.2045C60.2595 80.0758 59.5739 79.2197 58.6875 78.6364C57.8011 78.053 56.7633 77.7614 55.5739 77.7614C54.3845 77.7614 53.3466 78.053 52.4602 78.6364C51.5739 79.2197 50.8845 80.0758 50.392 81.2045C49.9072 82.3333 49.6648 83.7197 49.6648 85.3636C49.6648 87.0076 49.9072 88.3939 50.392 89.5227C50.8845 90.6515 51.5739 91.5076 52.4602 92.0909C53.3466 92.6742 54.3845 92.9659 55.5739 92.9659C56.7633 92.9659 57.8011 92.6742 58.6875 92.0909C59.5739 91.5076 60.2595 90.6515 60.7443 89.5227C61.2367 88.3939 61.483 87.0076 61.483 85.3636ZM78.3665 97H70.1165V73.7273H78.4347C80.7756 73.7273 82.7907 74.1932 84.4801 75.125C86.1695 76.0492 87.4688 77.3788 88.3778 79.1136C89.2945 80.8485 89.7528 82.9242 89.7528 85.3409C89.7528 87.7652 89.2945 89.8485 88.3778 91.5909C87.4688 93.3333 86.1619 94.6705 84.4574 95.6023C82.7604 96.5341 80.7301 97 78.3665 97ZM75.0369 92.7841H78.1619C79.6165 92.7841 80.84 92.5265 81.8324 92.0114C82.8324 91.4886 83.5824 90.6818 84.0824 89.5909C84.59 88.4924 84.8438 87.0758 84.8438 85.3409C84.8438 83.6212 84.59 82.2159 84.0824 81.125C83.5824 80.0341 82.8362 79.2311 81.8438 78.7159C80.8513 78.2008 79.6278 77.9432 78.1733 77.9432H75.0369V92.7841ZM93.3977 97V73.7273H109.08V77.7841H98.3182V83.3295H108.273V87.3864H98.3182V92.9432H109.125V97H93.3977Z" fill="white"/>
</svg>
