<svg width="266" height="247" viewBox="0 0 266 247" fill="none" xmlns="http://www.w3.org/2000/svg">
<path d="M95.0615 36.5C95.0616 22 98.8615 13 122.062 13C145.262 13 190.395 13 210.061 13M210.061 13L252.061 55M210.061 13V55H252.061M252.061 55V217.5C252.728 222.5 249.661 232.7 232.061 233.5C214.461 234.3 144.061 233.833 111.061 233.5C105.728 233.5 95.0615 230.3 95.0615 217.5C95.0615 204.7 95.0615 154.833 95.0615 131.5M117.561 207H128.561M149.561 207H160.561M181.561 207H192.561M213.061 207H224.061" stroke="black" stroke-width="26"/>
<rect y="48" width="183" height="75" rx="13" fill="black"/>
<path d="M24.0227 73.7273H30.0909L36.5 89.3636H36.7727L43.1818 73.7273H49.25V97H44.4773V81.8523H44.2841L38.2614 96.8864H35.0114L28.9886 81.7955H28.7955V97H24.0227V73.7273ZM53.304 97V73.7273H68.9858V77.7841H58.2244V83.3295H68.179V87.3864H58.2244V92.9432H69.0312V97H53.304ZM72.0114 77.7841V73.7273H91.125V77.7841H84V97H79.1364V77.7841H72.0114ZM94.2727 97V73.7273H99.1932V83.3295H109.182V73.7273H114.091V97H109.182V87.3864H99.1932V97H94.2727ZM139.534 85.3636C139.534 87.9015 139.053 90.0606 138.091 91.8409C137.136 93.6212 135.833 94.9811 134.182 95.9205C132.538 96.8523 130.689 97.3182 128.636 97.3182C126.568 97.3182 124.712 96.8485 123.068 95.9091C121.424 94.9697 120.125 93.6098 119.17 91.8295C118.216 90.0492 117.739 87.8939 117.739 85.3636C117.739 82.8258 118.216 80.6667 119.17 78.8864C120.125 77.1061 121.424 75.75 123.068 74.8182C124.712 73.8788 126.568 73.4091 128.636 73.4091C130.689 73.4091 132.538 73.8788 134.182 74.8182C135.833 75.75 137.136 77.1061 138.091 78.8864C139.053 80.6667 139.534 82.8258 139.534 85.3636ZM134.545 85.3636C134.545 83.7197 134.299 82.3333 133.807 81.2045C133.322 80.0758 132.636 79.2197 131.75 78.6364C130.864 78.053 129.826 77.7614 128.636 77.7614C127.447 77.7614 126.409 78.053 125.523 78.6364C124.636 79.2197 123.947 80.0758 123.455 81.2045C122.97 82.3333 122.727 83.7197 122.727 85.3636C122.727 87.0076 122.97 88.3939 123.455 89.5227C123.947 90.6515 124.636 91.5076 125.523 92.0909C126.409 92.6742 127.447 92.9659 128.636 92.9659C129.826 92.9659 130.864 92.6742 131.75 92.0909C132.636 91.5076 133.322 90.6515 133.807 89.5227C134.299 88.3939 134.545 87.0076 134.545 85.3636ZM151.429 97H143.179V73.7273H151.497C153.838 73.7273 155.853 74.1932 157.543 75.125C159.232 76.0492 160.531 77.3788 161.44 79.1136C162.357 80.8485 162.815 82.9242 162.815 85.3409C162.815 87.7652 162.357 89.8485 161.44 91.5909C160.531 93.3333 159.224 94.6705 157.52 95.6023C155.823 96.5341 153.793 97 151.429 97ZM148.099 92.7841H151.224C152.679 92.7841 153.902 92.5265 154.895 92.0114C155.895 91.4886 156.645 90.6818 157.145 89.5909C157.652 88.4924 157.906 87.0758 157.906 85.3409C157.906 83.6212 157.652 82.2159 157.145 81.125C156.645 80.0341 155.899 79.2311 154.906 78.7159C153.914 78.2008 152.69 77.9432 151.236 77.9432H148.099V92.7841Z" fill="white"/>
</svg>
