<svg width="235" height="247" viewBox="0 0 235 247" fill="none" xmlns="http://www.w3.org/2000/svg">
<path d="M64.0615 36.5C64.0616 22 67.8615 13 91.0615 13C114.262 13 159.395 13 179.061 13M179.061 13L221.061 55M179.061 13V55H221.061M221.061 55V217.5C221.728 222.5 218.661 232.7 201.061 233.5C183.461 234.3 113.061 233.833 80.0614 233.5C74.7281 233.5 64.0615 230.3 64.0615 217.5C64.0615 204.7 64.0615 154.833 64.0615 131.5M86.5614 207H97.5614M118.561 207H129.561M150.561 207H161.561M182.061 207H193.061" stroke="black" stroke-width="26"/>
<rect y="48" width="133" height="75" rx="13" fill="black"/>
<path d="M40.4886 73.7273V97H36.2386L26.1136 82.3523H25.9432V97H21.0227V73.7273H25.3409L35.3864 88.3636H35.5909V73.7273H40.4886ZM65.9403 85.3636C65.9403 87.9015 65.4593 90.0606 64.4972 91.8409C63.5426 93.6212 62.2396 94.9811 60.5881 95.9205C58.9441 96.8523 57.0956 97.3182 55.0426 97.3182C52.9744 97.3182 51.1184 96.8485 49.4744 95.9091C47.8305 94.9697 46.5313 93.6098 45.5767 91.8295C44.6222 90.0492 44.1449 87.8939 44.1449 85.3636C44.1449 82.8258 44.6222 80.6667 45.5767 78.8864C46.5313 77.1061 47.8305 75.75 49.4744 74.8182C51.1184 73.8788 52.9744 73.4091 55.0426 73.4091C57.0956 73.4091 58.9441 73.8788 60.5881 74.8182C62.2396 75.75 63.5426 77.1061 64.4972 78.8864C65.4593 80.6667 65.9403 82.8258 65.9403 85.3636ZM60.9517 85.3636C60.9517 83.7197 60.7055 82.3333 60.2131 81.2045C59.7282 80.0758 59.0426 79.2197 58.1562 78.6364C57.2699 78.053 56.232 77.7614 55.0426 77.7614C53.8532 77.7614 52.8153 78.053 51.929 78.6364C51.0426 79.2197 50.3532 80.0758 49.8608 81.2045C49.3759 82.3333 49.1335 83.7197 49.1335 85.3636C49.1335 87.0076 49.3759 88.3939 49.8608 89.5227C50.3532 90.6515 51.0426 91.5076 51.929 92.0909C52.8153 92.6742 53.8532 92.9659 55.0426 92.9659C56.232 92.9659 57.2699 92.6742 58.1562 92.0909C59.0426 91.5076 59.7282 90.6515 60.2131 89.5227C60.7055 88.3939 60.9517 87.0076 60.9517 85.3636ZM67.6364 77.7841V73.7273H86.75V77.7841H79.625V97H74.7614V77.7841H67.6364ZM89.8977 97V73.7273H105.58V77.7841H94.8182V83.3295H104.773V87.3864H94.8182V92.9432H105.625V97H89.8977Z" fill="white"/>
</svg>
