<svg width="250" height="247" viewBox="0 0 250 247" fill="none" xmlns="http://www.w3.org/2000/svg">
<path d="M79.0615 36.5C79.0616 22 82.8615 13 106.062 13C129.262 13 174.395 13 194.061 13M194.061 13L236.061 55M194.061 13V55H236.061M236.061 55V217.5C236.728 222.5 233.661 232.7 216.061 233.5C198.461 234.3 128.061 233.833 95.0614 233.5C89.7281 233.5 79.0615 230.3 79.0615 217.5C79.0615 204.7 79.0615 154.833 79.0615 131.5M101.561 207H112.561M133.561 207H144.561M165.561 207H176.561M197.061 207H208.061" stroke="black" stroke-width="26"/>
<rect y="48" width="158" height="75" rx="13" fill="black"/>
<path d="M24.0227 97V73.7273H33.2045C34.9697 73.7273 36.4735 74.0644 37.7159 74.7386C38.9583 75.4053 39.9053 76.3333 40.5568 77.5227C41.2159 78.7045 41.5455 80.0682 41.5455 81.6136C41.5455 83.1591 41.2121 84.5227 40.5455 85.7045C39.8788 86.8864 38.9129 87.8068 37.6477 88.4659C36.3902 89.125 34.8674 89.4545 33.0795 89.4545H27.2273V85.5114H32.2841C33.2311 85.5114 34.0114 85.3485 34.625 85.0227C35.2462 84.6894 35.7083 84.2311 36.0114 83.6477C36.322 83.0568 36.4773 82.3788 36.4773 81.6136C36.4773 80.8409 36.322 80.1667 36.0114 79.5909C35.7083 79.0076 35.2462 78.5568 34.625 78.2386C34.0038 77.9129 33.2159 77.75 32.2614 77.75H28.9432V97H24.0227ZM46.0653 97H40.7926L48.8267 73.7273H55.1676L63.1903 97H57.9176L52.0881 79.0455H51.9062L46.0653 97ZM45.7358 87.8523H58.1903V91.6932H45.7358V87.8523ZM65.9915 97V73.7273H75.1733C76.9309 73.7273 78.4309 74.0417 79.6733 74.6705C80.9233 75.2917 81.8741 76.1742 82.5256 77.3182C83.1847 78.4545 83.5142 79.7917 83.5142 81.3295C83.5142 82.875 83.1809 84.2045 82.5142 85.3182C81.8475 86.4242 80.8816 87.2727 79.6165 87.8636C78.3589 88.4545 76.8362 88.75 75.0483 88.75H68.9006V84.7955H74.2528C75.1922 84.7955 75.9725 84.6667 76.5938 84.4091C77.215 84.1515 77.6771 83.7652 77.9801 83.25C78.2907 82.7348 78.446 82.0947 78.446 81.3295C78.446 80.5568 78.2907 79.9053 77.9801 79.375C77.6771 78.8447 77.2112 78.4432 76.5824 78.1705C75.9612 77.8902 75.1771 77.75 74.2301 77.75H70.9119V97H65.9915ZM78.5597 86.4091L84.3438 97H78.9119L73.2528 86.4091H78.5597ZM91.0028 97H85.7301L93.7642 73.7273H100.105L108.128 97H102.855L97.0256 79.0455H96.8438L91.0028 97ZM90.6733 87.8523H103.128V91.6932H90.6733V87.8523ZM110.929 73.7273H116.997L123.406 89.3636H123.679L130.088 73.7273H136.156V97H131.384V81.8523H131.19L125.168 96.8864H121.918L115.895 81.7955H115.702V97H110.929V73.7273Z" fill="white"/>
</svg>
