<svg width="259" height="247" viewBox="0 0 259 247" fill="none" xmlns="http://www.w3.org/2000/svg">
<path d="M88.0615 36.5C88.0616 22 91.8615 13 115.062 13C138.262 13 183.395 13 203.061 13M203.061 13L245.061 55M203.061 13V55H245.061M245.061 55V217.5C245.728 222.5 242.661 232.7 225.061 233.5C207.461 234.3 137.061 233.833 104.061 233.5C98.7281 233.5 88.0615 230.3 88.0615 217.5C88.0615 204.7 88.0615 154.833 88.0615 131.5M110.561 207H121.561M142.561 207H153.561M174.561 207H185.561M206.061 207H217.061" stroke="black" stroke-width="26"/>
<rect y="48" width="167" height="75" rx="13" fill="black"/>
<path d="M21.0227 97V73.7273H30.2045C31.9621 73.7273 33.4621 74.0417 34.7045 74.6705C35.9545 75.2917 36.9053 76.1742 37.5568 77.3182C38.2159 78.4545 38.5455 79.7917 38.5455 81.3295C38.5455 82.875 38.2121 84.2045 37.5455 85.3182C36.8788 86.4242 35.9129 87.2727 34.6477 87.8636C33.3902 88.4545 31.8674 88.75 30.0795 88.75H23.9318V84.7955H29.2841C30.2235 84.7955 31.0038 84.6667 31.625 84.4091C32.2462 84.1515 32.7083 83.7652 33.0114 83.25C33.322 82.7348 33.4773 82.0947 33.4773 81.3295C33.4773 80.5568 33.322 79.9053 33.0114 79.375C32.7083 78.8447 32.2424 78.4432 31.6136 78.1705C30.9924 77.8902 30.2083 77.75 29.2614 77.75H25.9432V97H21.0227ZM33.5909 86.4091L39.375 97H33.9432L28.2841 86.4091H33.5909ZM42.0227 97V73.7273H57.7045V77.7841H46.9432V83.3295H56.8977V87.3864H46.9432V92.9432H57.75V97H42.0227ZM60.7301 77.7841V73.7273H79.8438V77.7841H72.7188V97H67.8551V77.7841H60.7301ZM97.3665 73.7273H102.287V88.8409C102.287 90.5379 101.882 92.0227 101.071 93.2955C100.268 94.5682 99.143 95.5606 97.696 96.2727C96.2491 96.9773 94.5634 97.3295 92.6392 97.3295C90.7074 97.3295 89.018 96.9773 87.571 96.2727C86.1241 95.5606 84.9991 94.5682 84.196 93.2955C83.393 92.0227 82.9915 90.5379 82.9915 88.8409V73.7273H87.9119V88.4205C87.9119 89.3068 88.1051 90.0947 88.4915 90.7841C88.8854 91.4735 89.4384 92.0152 90.1506 92.4091C90.8627 92.803 91.6922 93 92.6392 93C93.5938 93 94.4233 92.803 95.1278 92.4091C95.84 92.0152 96.3892 91.4735 96.7756 90.7841C97.1695 90.0947 97.3665 89.3068 97.3665 88.4205V73.7273ZM106.335 97V73.7273H115.517C117.275 73.7273 118.775 74.0417 120.017 74.6705C121.267 75.2917 122.218 76.1742 122.869 77.3182C123.528 78.4545 123.858 79.7917 123.858 81.3295C123.858 82.875 123.525 84.2045 122.858 85.3182C122.191 86.4242 121.225 87.2727 119.96 87.8636C118.703 88.4545 117.18 88.75 115.392 88.75H109.244V84.7955H114.597C115.536 84.7955 116.316 84.6667 116.938 84.4091C117.559 84.1515 118.021 83.7652 118.324 83.25C118.634 82.7348 118.79 82.0947 118.79 81.3295C118.79 80.5568 118.634 79.9053 118.324 79.375C118.021 78.8447 117.555 78.4432 116.926 78.1705C116.305 77.8902 115.521 77.75 114.574 77.75H111.256V97H106.335ZM118.903 86.4091L124.688 97H119.256L113.597 86.4091H118.903ZM146.801 73.7273V97H142.551L132.426 82.3523H132.256V97H127.335V73.7273H131.653L141.699 88.3636H141.903V73.7273H146.801Z" fill="white"/>
</svg>
